<mxfile host="65bd71144e" modified="2020-12-15T02:34:06.349Z" agent="5.0 (Macintosh; Intel Mac OS X 10_15_7) AppleWebKit/537.36 (KHTML, like Gecko) Code/1.52.0 Chrome/83.0.4103.122 Electron/9.3.5 Safari/537.36" version="13.10.0" etag="m6ngWyESSGkublZ7xHTC" type="embed">
    <diagram id="vDi1kNraxBzLWsi9RYl0" name="Page-1">
        <mxGraphModel dx="1114" dy="628" grid="1" gridSize="10" guides="1" tooltips="1" connect="1" arrows="1" fold="1" page="1" pageScale="1" pageWidth="850" pageHeight="1100" math="0" shadow="0">
            <root>
                <mxCell id="0"/>
                <mxCell id="1" parent="0"/>
            </root>
        </mxGraphModel>
    </diagram>
</mxfile>